<svg xmlns="http://www.w3.org/2000/svg" viewBox="0 0 64 64" shape-rendering="geometricPrecision" preserveAspectRatio="xMidYMid meet">
  <defs>
    <linearGradient id="themeGrad" x1="0" y1="0" x2="1" y2="1">
      <stop offset="0%" stop-color="#00D4AA"/>
      <stop offset="100%" stop-color="#33DDBB"/>
    </linearGradient>
  </defs>
  <!-- Kingfisher / hummingbird silhouette, simple swoop -->
  <g transform="translate(32 32) scale(0.80) translate(-32 -32)">
    <path fill="url(#themeGrad)" stroke="none" d="
      M28 20
      C30 18,33 17,36 18
      C40 19,44 20,48 20
      L58 18
      L48 22
      C44 23,41 25,39 27
      C37 29,36 31,36 33
      C40 35,44 37,48 39
      L44 39
      C40 39,36 41,33 44
      C30 46,26 49,22 52
      C23 48,25 44,27 42
      C29 40,30 37,28 34
      C26 31,24 28,24 26
      C24 24,26 22,28 20
      Z
      M36 18
      C38 16,41 16,46 17
      L58 16
      L46 20
      Z
    "/>
  </g>
</svg>